<?xml version="1.0" standalone="no"?>
<!DOCTYPE svg PUBLIC "-//W3C//DTD SVG 20010904//EN"
 "http://www.w3.org/TR/2001/REC-SVG-20010904/DTD/svg10.dtd">
<svg version="1.0" xmlns="http://www.w3.org/2000/svg"
 width="1312.000000pt" height="175.000000pt" viewBox="0 0 1312.000000 175.000000"
 preserveAspectRatio="xMidYMid meet">

<g transform="translate(0.000000,175.000000) scale(0.100000,-0.100000)"
fill="#1D5B95" stroke="none">
<path d="M578 1520 c-201 -29 -305 -129 -328 -319 -12 -96 -1 -237 26 -315 22
-65 86 -128 150 -149 27 -9 139 -28 248 -42 197 -26 248 -39 260 -70 10 -28 7
-153 -5 -179 -19 -42 -66 -51 -259 -51 -96 0 -223 4 -282 8 l-108 8 0 -125 0
-125 33 -5 c150 -25 586 -35 688 -16 84 16 173 64 209 113 64 87 92 258 71
422 -15 113 -43 176 -95 221 -53 45 -105 59 -316 84 -274 33 -280 36 -280 150
0 102 23 122 162 134 66 6 417 -9 451 -20 16 -5 17 5 17 120 0 144 13 129
-120 146 -108 15 -443 21 -522 10z"/>
<path d="M12097 1520 c-38 -5 -101 -18 -140 -30 -59 -18 -81 -31 -123 -74 -69
-68 -91 -140 -106 -336 -11 -160 -4 -537 12 -640 13 -83 65 -186 110 -222 80
-63 214 -88 469 -88 276 0 405 32 484 120 83 92 101 211 95 633 -5 340 -15
411 -71 494 -71 106 -190 143 -472 148 -104 2 -221 0 -258 -5z m385 -276 c60
-31 78 -128 78 -419 0 -201 -13 -338 -35 -371 -34 -53 -58 -59 -215 -59 -241
0 -235 -11 -235 435 0 298 2 328 19 363 22 46 43 58 116 68 75 10 239 0 272
-17z"/>
<path d="M1420 1375 l0 -135 185 0 185 0 0 -550 0 -550 175 0 175 0 0 550 0
550 190 0 190 0 0 135 0 135 -550 0 -550 0 0 -135z"/>
<path d="M2693 973 c4 -573 4 -580 55 -679 42 -82 133 -134 270 -154 86 -12
358 -12 444 0 154 22 246 84 285 190 36 96 43 212 43 708 l0 472 -169 0 -170
0 -3 -507 c-3 -554 -2 -543 -61 -587 -25 -19 -42 -21 -145 -21 -134 1 -171 13
-193 67 -11 26 -14 145 -17 541 l-3 507 -170 0 -170 0 4 -537z"/>
<path d="M4070 825 l0 -687 358 5 c197 3 385 10 420 16 106 19 173 49 222 100
87 89 104 199 97 629 -4 269 -7 315 -24 374 -38 128 -97 183 -238 222 -62 17
-113 20 -452 24 l-383 4 0 -687z m645 414 c49 -12 77 -38 95 -89 17 -48 25
-440 12 -557 -19 -167 -43 -183 -262 -183 l-140 0 0 420 0 420 126 0 c69 0
145 -5 169 -11z"/>
<path d="M5494 1066 l226 -445 0 -240 0 -241 175 0 175 0 0 238 0 237 225 442
c124 244 225 445 225 448 0 3 -77 4 -172 3 l-171 -3 -131 -282 c-72 -155 -136
-283 -142 -283 -6 0 -71 128 -145 285 l-134 284 -178 1 -179 0 226 -444z"/>
<path d="M6670 825 l0 -685 175 0 175 0 0 245 0 246 123 -3 122 -3 85 -242 85
-243 179 0 c165 0 178 1 172 17 -4 10 -50 130 -103 267 -63 160 -93 251 -86
253 6 2 30 17 51 33 93 67 137 250 114 470 -14 134 -39 196 -99 250 -84 74
-85 74 -565 78 l-428 3 0 -686z m689 414 c48 -17 61 -52 61 -168 0 -171 -13
-181 -242 -189 l-158 -5 0 187 0 186 154 0 c86 0 167 -5 185 -11z"/>
<path d="M8020 825 l0 -685 480 0 480 0 0 135 0 135 -305 0 -305 0 0 145 0
145 260 0 260 0 0 130 0 130 -260 0 -260 0 0 145 0 145 305 0 305 0 0 130 0
130 -480 0 -480 0 0 -685z"/>
<path d="M9130 1375 l0 -135 185 0 185 0 0 -550 0 -550 175 0 175 0 0 550 0
550 190 0 190 0 0 135 0 135 -550 0 -550 0 0 -135z"/>
<path d="M10400 825 l0 -685 175 0 175 0 0 245 0 246 123 -3 122 -3 85 -242
85 -243 179 0 c165 0 178 1 172 17 -4 10 -50 130 -103 267 -63 160 -93 251
-86 253 6 2 30 17 51 33 93 67 137 250 114 470 -14 134 -39 196 -99 250 -84
74 -85 74 -565 78 l-428 3 0 -686z m689 414 c48 -17 61 -52 61 -168 0 -171
-13 -181 -242 -189 l-158 -5 0 187 0 186 154 0 c86 0 167 -5 185 -11z"/>
</g>
</svg>
